<svg xmlns="http://www.w3.org/2000/svg" viewBox="0 0 920 330" role="img" aria-label="Iter Maps mobile roadmap" font-family="system-ui, -apple-system, 'Segoe UI', Roboto, sans-serif">
  <g font-size="15" font-weight="700">
    <circle cx="18" cy="24" r="5" fill="#2E9E63"/><text x="32" y="29" fill="#1B1D29">Available now</text>
    <circle cx="328" cy="24" r="5" fill="#4248C9"/><text x="342" y="29" fill="#1B1D29">In progress</text>
    <circle cx="638" cy="24" r="5" fill="#8A8FA8"/><text x="652" y="29" fill="#1B1D29">Planned</text>
  </g>
  <g font-size="13.5" fill="#1B1D29">
    <g>
      <rect x="10" y="46" width="290" height="34" rx="10" fill="#E9F5EE" stroke="#CBE7D6"/><text x="26" y="68">Shared gateway core (KMP)</text>
      <rect x="10" y="88" width="290" height="34" rx="10" fill="#E9F5EE" stroke="#CBE7D6"/><text x="26" y="110">Map, transit styles &amp; overlays</text>
      <rect x="10" y="130" width="290" height="34" rx="10" fill="#E9F5EE" stroke="#CBE7D6"/><text x="26" y="152">Search &amp; place details</text>
      <rect x="10" y="172" width="290" height="34" rx="10" fill="#E9F5EE" stroke="#CBE7D6"/><text x="26" y="194">Journey planning + rerank</text>
      <rect x="10" y="214" width="290" height="34" rx="10" fill="#E9F5EE" stroke="#CBE7D6"/><text x="26" y="236">Live train boards</text>
      <rect x="10" y="256" width="290" height="34" rx="10" fill="#E9F5EE" stroke="#CBE7D6"/><text x="26" y="278">Bottom-sheet UX (Android)</text>
    </g>
    <g>
      <rect x="320" y="46" width="290" height="34" rx="10" fill="#EEF0FB" stroke="#D9DCF2"/><text x="336" y="68">iOS shell (Liquid Glass)</text>
      <rect x="320" y="88" width="290" height="34" rx="10" fill="#EEF0FB" stroke="#D9DCF2"/><text x="336" y="110">Offline map management</text>
      <rect x="320" y="130" width="290" height="34" rx="10" fill="#EEF0FB" stroke="#D9DCF2"/><text x="336" y="152">Reliability in results</text>
    </g>
    <g>
      <rect x="630" y="46" width="280" height="34" rx="10" fill="#F3F4F8" stroke="#E2E4EE"/><text x="646" y="68">Turn-by-turn guidance</text>
      <rect x="630" y="88" width="280" height="34" rx="10" fill="#F3F4F8" stroke="#E2E4EE"/><text x="646" y="110">Saved places &amp; history</text>
      <rect x="630" y="130" width="280" height="34" rx="10" fill="#F3F4F8" stroke="#E2E4EE"/><text x="646" y="152">Service alerts</text>
      <rect x="630" y="172" width="280" height="34" rx="10" fill="#F3F4F8" stroke="#E2E4EE"/><text x="646" y="194">Private E2EE sync</text>
      <rect x="630" y="214" width="280" height="34" rx="10" fill="#F3F4F8" stroke="#E2E4EE"/><text x="646" y="236">Crowd telemetry (opt-in)</text>
      <rect x="630" y="256" width="280" height="34" rx="10" fill="#F3F4F8" stroke="#E2E4EE"/><text x="646" y="278">Localization · store releases</text>
    </g>
  </g>
</svg>
